<?xml version="1.0" encoding="UTF-8" standalone="no"?>
<svg
   xmlns:dc="http://purl.org/dc/elements/1.1/"
   xmlns:cc="http://creativecommons.org/ns#"
   xmlns:rdf="http://www.w3.org/1999/02/22-rdf-syntax-ns#"
   xmlns:svg="http://www.w3.org/2000/svg"
   xmlns="http://www.w3.org/2000/svg"
   xmlns:sodipodi="http://sodipodi.sourceforge.net/DTD/sodipodi-0.dtd"
   xmlns:inkscape="http://www.inkscape.org/namespaces/inkscape"
   sodipodi:docname="millie_kitchen_laser_cut_diff.svg"
   inkscape:version="1.0beta1 (32d4812, 2019-09-19)"
   id="svg8"
   version="1.1"
   viewBox="0 0 297 210"
   height="210mm"
   width="297mm">
  <defs
     id="defs2" />
  <sodipodi:namedview
     inkscape:window-maximized="0"
     inkscape:window-y="23"
     inkscape:window-x="0"
     inkscape:window-height="668"
     inkscape:window-width="1280"
     showgrid="false"
     inkscape:document-rotation="0"
     inkscape:current-layer="layer1"
     inkscape:document-units="mm"
     inkscape:cy="414.60952"
     inkscape:cx="536.73744"
     inkscape:zoom="0.38448545"
     inkscape:pageshadow="2"
     inkscape:pageopacity="0.0"
     borderopacity="1.0"
     bordercolor="#666666"
     pagecolor="#ffffff"
     id="base" />
  <metadata
     id="metadata5">
    <rdf:RDF>
      <cc:Work
         rdf:about="">
        <dc:format>image/svg+xml</dc:format>
        <dc:type
           rdf:resource="http://purl.org/dc/dcmitype/StillImage" />
        <dc:title></dc:title>
      </cc:Work>
    </rdf:RDF>
  </metadata>
  <g
     id="layer1"
     inkscape:groupmode="layer"
     inkscape:label="Layer 1">
    <g
       transform="translate(-1.5875,-5.2916669)"
       id="g1073"
       style="stroke:#ff0000;stroke-opacity:1">
      <ellipse
         style="fill:none;stroke:#ff0000;stroke-width:0.102589;stroke-linecap:round;stroke-linejoin:round;stroke-miterlimit:4;stroke-dasharray:none;stroke-opacity:1"
         id="path851"
         cx="59.40659"
         cy="62.356995"
         rx="51.448704"
         ry="51.448044" />
      <path
         inkscape:connector-curvature="0"
         id="circle857"
         style="fill:none;stroke:#ff0000;stroke-width:0.377953;stroke-linecap:round;stroke-linejoin:round;stroke-miterlimit:4;stroke-dasharray:none;stroke-opacity:1"
         d="M 215.0918,85.964844 A 151.03052,151.04667 0 0 0 72.873047,227.44336 h 9.458984 A 141.5911,141.57448 0 0 1 215.0918,95.451172 Z m 18.58789,0.09375 v 9.496094 a 141.5911,141.57448 0 0 1 131.3125,133.435542 h 9.45312 A 151.03052,151.04667 0 0 0 233.67969,86.058594 Z m 131.3125,158.490236 a 141.5911,141.57448 0 0 1 -131.3125,133.43555 v 9.49609 A 151.03052,151.04667 0 0 0 374.44531,244.54883 Z M 72.873047,246.0957 A 151.03052,151.04667 0 0 0 215.0918,387.57422 v -9.48828 A 141.5911,141.57448 0 0 1 82.332031,246.0957 Z"
         transform="scale(0.26458333)" />
      <path
         inkscape:connector-curvature="0"
         id="ellipse861"
         style="fill:none;stroke:#ff0000;stroke-width:0.377953;stroke-linecap:round;stroke-linejoin:round;stroke-miterlimit:4;stroke-dasharray:none;stroke-opacity:1"
         d="m 214.33594,133.3457 a 103.83176,103.83956 0 0 0 -94.13282,94.09766 h 9.48047 a 94.394076,94.398449 0 0 1 84.65235,-84.61524 z m 18.55859,0 v 9.48242 a 94.394076,94.398449 0 0 1 84.79297,86.16211 h 9.4668 A 103.83176,103.83956 0 0 0 232.89453,133.3457 Z m 84.79297,111.20313 a 94.394076,94.398449 0 0 1 -84.79297,86.16211 v 9.48242 a 103.83176,103.83956 0 0 0 94.25977,-95.64453 z m -197.48438,1.54687 a 103.83176,103.83956 0 0 0 94.13282,94.09766 v -9.48242 a 94.394076,94.398449 0 0 1 -84.6543,-84.61524 z"
         transform="scale(0.26458333)" />
      <path
         inkscape:connector-curvature="0"
         id="ellipse865"
         style="fill:none;stroke:#ff0000;stroke-width:0.377953;stroke-linecap:round;stroke-linejoin:round;stroke-miterlimit:4;stroke-dasharray:none;stroke-opacity:1"
         d="m 232.74414,190.44922 v 9.67773 a 37.757624,37.761606 0 0 1 27.45508,27.30078 h 9.67969 a 47.197035,47.212358 0 0 0 -37.13477,-36.97851 z m -18.55859,0.0606 a 47.197035,47.212358 0 0 0 -36.83203,36.91796 h 9.67968 a 37.757624,37.761606 0 0 1 27.15235,-27.22265 z m -36.83985,55.57031 a 47.197035,47.212358 0 0 0 36.99024,36.97851 v -9.6875 a 37.757624,37.761606 0 0 1 -27.31055,-27.29101 z m 82.85938,0 a 37.757624,37.761606 0 0 1 -27.31055,27.29297 v 9.68554 a 47.197035,47.212358 0 0 0 36.99024,-36.97851 z"
         transform="scale(0.26458333)" />
      <g
         id="g1040"
         style="stroke:#ff0000;stroke-opacity:1">
        <ellipse
           style="opacity:1;fill:none;stroke:#ff0000;stroke-width:0.1;stroke-linecap:round;stroke-linejoin:round;stroke-miterlimit:4;stroke-dasharray:none;stroke-opacity:1"
           id="ellipse1028"
           cx="82.002998"
           cy="39.255264"
           rx="1.4754099"
           ry="1.4826704" />
        <ellipse
           ry="1.4826704"
           rx="1.4754099"
           cy="39.255264"
           cx="37.023834"
           id="ellipse1030"
           style="opacity:1;fill:none;stroke:#ff0000;stroke-width:0.1;stroke-linecap:round;stroke-linejoin:round;stroke-miterlimit:4;stroke-dasharray:none;stroke-opacity:1" />
        <ellipse
           style="opacity:1;fill:none;stroke:#ff0000;stroke-width:0.1;stroke-linecap:round;stroke-linejoin:round;stroke-miterlimit:4;stroke-dasharray:none;stroke-opacity:1"
           id="ellipse1032"
           cx="37.023834"
           cy="85.821922"
           rx="1.4754099"
           ry="1.4826704" />
        <ellipse
           ry="1.4826704"
           rx="1.4754099"
           cy="85.821922"
           cx="82.532166"
           id="ellipse1034"
           style="opacity:1;fill:none;stroke:#ff0000;stroke-width:0.1;stroke-linecap:round;stroke-linejoin:round;stroke-miterlimit:4;stroke-dasharray:none;stroke-opacity:1" />
      </g>
    </g>
    <g
       transform="translate(-14.796779,-13.747396)"
       id="g1106"
       style="stroke:#ff0000;stroke-opacity:1">
      <ellipse
         ry="40.963558"
         rx="40.959164"
         cy="61.634899"
         cx="169.73631"
         id="ellipse1002"
         style="fill:none;stroke:#ff0000;stroke-width:0.1;stroke-linecap:round;stroke-linejoin:round;stroke-miterlimit:4;stroke-dasharray:none;stroke-opacity:1" />
      <g
         id="g1024"
         transform="translate(110.93145,-0.4355278)"
         style="stroke:#ff0000;stroke-opacity:1">
        <circle
           r="2.5"
           cy="43.549591"
           cx="59.333996"
           id="path1006"
           style="opacity:1;fill:none;stroke:#ff0000;stroke-width:0.1;stroke-linecap:round;stroke-linejoin:round;stroke-miterlimit:4;stroke-dasharray:none;stroke-opacity:1" />
        <circle
           style="opacity:1;fill:none;stroke:#ff0000;stroke-width:0.1;stroke-linecap:round;stroke-linejoin:round;stroke-miterlimit:4;stroke-dasharray:none;stroke-opacity:1"
           id="circle1008"
           cx="59.333996"
           cy="80.591263"
           r="2.5" />
        <circle
           r="2.5"
           cy="62.599598"
           cx="77.325699"
           id="circle1010"
           style="opacity:1;fill:none;stroke:#ff0000;stroke-width:0.1;stroke-linecap:round;stroke-linejoin:round;stroke-miterlimit:4;stroke-dasharray:none;stroke-opacity:1" />
        <circle
           style="opacity:1;fill:none;stroke:#ff0000;stroke-width:0.1;stroke-linecap:round;stroke-linejoin:round;stroke-miterlimit:4;stroke-dasharray:none;stroke-opacity:1"
           id="circle1012"
           cx="40.284027"
           cy="62.599598"
           r="2.5" />
      </g>
      <g
         id="g1050"
         transform="translate(109.95831,-0.90369415)"
         style="stroke:#ff0000;stroke-opacity:1">
        <ellipse
           ry="1.4826704"
           rx="1.4754099"
           cy="39.255264"
           cx="82.002998"
           id="ellipse1042"
           style="opacity:1;fill:none;stroke:#ff0000;stroke-width:0.1;stroke-linecap:round;stroke-linejoin:round;stroke-miterlimit:4;stroke-dasharray:none;stroke-opacity:1" />
        <ellipse
           style="opacity:1;fill:none;stroke:#ff0000;stroke-width:0.1;stroke-linecap:round;stroke-linejoin:round;stroke-miterlimit:4;stroke-dasharray:none;stroke-opacity:1"
           id="ellipse1044"
           cx="37.023834"
           cy="39.255264"
           rx="1.4754099"
           ry="1.4826704" />
        <ellipse
           ry="1.4826704"
           rx="1.4754099"
           cy="85.821922"
           cx="37.023834"
           id="ellipse1046"
           style="opacity:1;fill:none;stroke:#ff0000;stroke-width:0.1;stroke-linecap:round;stroke-linejoin:round;stroke-miterlimit:4;stroke-dasharray:none;stroke-opacity:1" />
        <ellipse
           style="opacity:1;fill:none;stroke:#ff0000;stroke-width:0.1;stroke-linecap:round;stroke-linejoin:round;stroke-miterlimit:4;stroke-dasharray:none;stroke-opacity:1"
           id="ellipse1048"
           cx="82.532166"
           cy="85.821922"
           rx="1.4754099"
           ry="1.4826704" />
      </g>
    </g>
    <g
       transform="translate(-130.59976,0.55303463)"
       id="g1093"
       style="stroke:#ff0000;stroke-opacity:1">
      <g
         id="g1062"
         transform="translate(54.401732,3.1690329)"
         style="stroke:#ff0000;stroke-opacity:1">
        <ellipse
           ry="40.963558"
           rx="40.959164"
           cy="148.42422"
           cx="124.22397"
           id="ellipse1052"
           style="fill:none;stroke:#ff0000;stroke-width:0.1;stroke-linecap:round;stroke-linejoin:round;stroke-miterlimit:4;stroke-dasharray:none;stroke-opacity:1" />
        <ellipse
           style="fill:none;stroke:#ff0000;stroke-width:0.0634003;stroke-linecap:round;stroke-linejoin:round;stroke-miterlimit:4;stroke-dasharray:none;stroke-opacity:1"
           id="ellipse1054"
           cx="124.22397"
           cy="148.42422"
           rx="25.9683"
           ry="25.970968" />
      </g>
      <g
         transform="translate(118.8477,89.054664)"
         id="g1083"
         style="stroke:#ff0000;stroke-opacity:1">
        <ellipse
           style="opacity:1;fill:none;stroke:#ff0000;stroke-width:0.1;stroke-linecap:round;stroke-linejoin:round;stroke-miterlimit:4;stroke-dasharray:none;stroke-opacity:1"
           id="ellipse1075"
           cx="82.002998"
           cy="39.255264"
           rx="1.4754099"
           ry="1.4826704" />
        <ellipse
           ry="1.4826704"
           rx="1.4754099"
           cy="39.255264"
           cx="37.023834"
           id="ellipse1077"
           style="opacity:1;fill:none;stroke:#ff0000;stroke-width:0.1;stroke-linecap:round;stroke-linejoin:round;stroke-miterlimit:4;stroke-dasharray:none;stroke-opacity:1" />
        <ellipse
           style="opacity:1;fill:none;stroke:#ff0000;stroke-width:0.1;stroke-linecap:round;stroke-linejoin:round;stroke-miterlimit:4;stroke-dasharray:none;stroke-opacity:1"
           id="ellipse1079"
           cx="37.023834"
           cy="85.821922"
           rx="1.4754099"
           ry="1.4826704" />
        <ellipse
           ry="1.4826704"
           rx="1.4754099"
           cy="85.821922"
           cx="82.532166"
           id="ellipse1081"
           style="opacity:1;fill:none;stroke:#ff0000;stroke-width:0.1;stroke-linecap:round;stroke-linejoin:round;stroke-miterlimit:4;stroke-dasharray:none;stroke-opacity:1" />
      </g>
    </g>
    <g
       transform="translate(87.312501,80.962502)"
       style="stroke:#ff0000;stroke-opacity:1"
       id="g909">
      <ellipse
         ry="51.448044"
         rx="51.448704"
         cy="62.356995"
         cx="59.40659"
         id="ellipse891"
         style="fill:none;stroke:#ff0000;stroke-width:0.102589;stroke-linecap:round;stroke-linejoin:round;stroke-miterlimit:4;stroke-dasharray:none;stroke-opacity:1" />
      <path
         inkscape:connector-curvature="0"
         transform="scale(0.26458333)"
         d="M 215.0918,85.964844 A 151.03052,151.04667 0 0 0 72.873047,227.44336 h 9.458984 A 141.5911,141.57448 0 0 1 215.0918,95.451172 Z m 18.58789,0.09375 v 9.496094 a 141.5911,141.57448 0 0 1 131.3125,133.435542 h 9.45312 A 151.03052,151.04667 0 0 0 233.67969,86.058594 Z m 131.3125,158.490236 a 141.5911,141.57448 0 0 1 -131.3125,133.43555 v 9.49609 A 151.03052,151.04667 0 0 0 374.44531,244.54883 Z M 72.873047,246.0957 A 151.03052,151.04667 0 0 0 215.0918,387.57422 v -9.48828 A 141.5911,141.57448 0 0 1 82.332031,246.0957 Z"
         style="fill:none;stroke:#ff0000;stroke-width:0.377953;stroke-linecap:round;stroke-linejoin:round;stroke-miterlimit:4;stroke-dasharray:none;stroke-opacity:1"
         id="path893" />
      <path
         inkscape:connector-curvature="0"
         transform="scale(0.26458333)"
         d="m 214.33594,133.3457 a 103.83176,103.83956 0 0 0 -94.13282,94.09766 h 9.48047 a 94.394076,94.398449 0 0 1 84.65235,-84.61524 z m 18.55859,0 v 9.48242 a 94.394076,94.398449 0 0 1 84.79297,86.16211 h 9.4668 A 103.83176,103.83956 0 0 0 232.89453,133.3457 Z m 84.79297,111.20313 a 94.394076,94.398449 0 0 1 -84.79297,86.16211 v 9.48242 a 103.83176,103.83956 0 0 0 94.25977,-95.64453 z m -197.48438,1.54687 a 103.83176,103.83956 0 0 0 94.13282,94.09766 v -9.48242 a 94.394076,94.398449 0 0 1 -84.6543,-84.61524 z"
         style="fill:none;stroke:#ff0000;stroke-width:0.377953;stroke-linecap:round;stroke-linejoin:round;stroke-miterlimit:4;stroke-dasharray:none;stroke-opacity:1"
         id="path895" />
      <path
         inkscape:connector-curvature="0"
         transform="scale(0.26458333)"
         d="m 232.74414,190.44922 v 9.67773 a 37.757624,37.761606 0 0 1 27.45508,27.30078 h 9.67969 a 47.197035,47.212358 0 0 0 -37.13477,-36.97851 z m -18.55859,0.0606 a 47.197035,47.212358 0 0 0 -36.83203,36.91796 h 9.67968 a 37.757624,37.761606 0 0 1 27.15235,-27.22265 z m -36.83985,55.57031 a 47.197035,47.212358 0 0 0 36.99024,36.97851 v -9.6875 a 37.757624,37.761606 0 0 1 -27.31055,-27.29101 z m 82.85938,0 a 37.757624,37.761606 0 0 1 -27.31055,27.29297 v 9.68554 a 47.197035,47.212358 0 0 0 36.99024,-36.97851 z"
         style="fill:none;stroke:#ff0000;stroke-width:0.377953;stroke-linecap:round;stroke-linejoin:round;stroke-miterlimit:4;stroke-dasharray:none;stroke-opacity:1"
         id="path897" />
      <g
         style="stroke:#ff0000;stroke-opacity:1"
         id="g907">
        <ellipse
           ry="1.4826704"
           rx="1.4754099"
           cy="39.255264"
           cx="82.002998"
           id="ellipse899"
           style="opacity:1;fill:none;stroke:#ff0000;stroke-width:0.1;stroke-linecap:round;stroke-linejoin:round;stroke-miterlimit:4;stroke-dasharray:none;stroke-opacity:1" />
        <ellipse
           style="opacity:1;fill:none;stroke:#ff0000;stroke-width:0.1;stroke-linecap:round;stroke-linejoin:round;stroke-miterlimit:4;stroke-dasharray:none;stroke-opacity:1"
           id="ellipse901"
           cx="37.023834"
           cy="39.255264"
           rx="1.4754099"
           ry="1.4826704" />
        <ellipse
           ry="1.4826704"
           rx="1.4754099"
           cy="85.821922"
           cx="37.023834"
           id="ellipse903"
           style="opacity:1;fill:none;stroke:#ff0000;stroke-width:0.1;stroke-linecap:round;stroke-linejoin:round;stroke-miterlimit:4;stroke-dasharray:none;stroke-opacity:1" />
        <ellipse
           style="opacity:1;fill:none;stroke:#ff0000;stroke-width:0.1;stroke-linecap:round;stroke-linejoin:round;stroke-miterlimit:4;stroke-dasharray:none;stroke-opacity:1"
           id="ellipse905"
           cx="82.532166"
           cy="85.821922"
           rx="1.4754099"
           ry="1.4826704" />
      </g>
    </g>
    <g
       style="stroke:#ff0000;stroke-opacity:1"
       id="g927"
       transform="translate(63.604425,-101.57615)">
      <g
         style="stroke:#ff0000;stroke-opacity:1"
         transform="translate(54.401732,3.1690329)"
         id="g915">
        <ellipse
           style="fill:none;stroke:#ff0000;stroke-width:0.1;stroke-linecap:round;stroke-linejoin:round;stroke-miterlimit:4;stroke-dasharray:none;stroke-opacity:1"
           id="ellipse911"
           cx="124.22397"
           cy="148.42422"
           rx="40.959164"
           ry="40.963558" />
        <ellipse
           ry="25.970968"
           rx="25.9683"
           cy="148.42422"
           cx="124.22397"
           id="ellipse913"
           style="fill:none;stroke:#ff0000;stroke-width:0.0634003;stroke-linecap:round;stroke-linejoin:round;stroke-miterlimit:4;stroke-dasharray:none;stroke-opacity:1" />
      </g>
      <g
         style="stroke:#ff0000;stroke-opacity:1"
         id="g925"
         transform="translate(118.8477,89.054664)">
        <ellipse
           ry="1.4826704"
           rx="1.4754099"
           cy="39.255264"
           cx="82.002998"
           id="ellipse917"
           style="opacity:1;fill:none;stroke:#ff0000;stroke-width:0.1;stroke-linecap:round;stroke-linejoin:round;stroke-miterlimit:4;stroke-dasharray:none;stroke-opacity:1" />
        <ellipse
           style="opacity:1;fill:none;stroke:#ff0000;stroke-width:0.1;stroke-linecap:round;stroke-linejoin:round;stroke-miterlimit:4;stroke-dasharray:none;stroke-opacity:1"
           id="ellipse919"
           cx="37.023834"
           cy="39.255264"
           rx="1.4754099"
           ry="1.4826704" />
        <ellipse
           ry="1.4826704"
           rx="1.4754099"
           cy="85.821922"
           cx="37.023834"
           id="ellipse921"
           style="opacity:1;fill:none;stroke:#ff0000;stroke-width:0.1;stroke-linecap:round;stroke-linejoin:round;stroke-miterlimit:4;stroke-dasharray:none;stroke-opacity:1" />
        <ellipse
           style="opacity:1;fill:none;stroke:#ff0000;stroke-width:0.1;stroke-linecap:round;stroke-linejoin:round;stroke-miterlimit:4;stroke-dasharray:none;stroke-opacity:1"
           id="ellipse923"
           cx="82.532166"
           cy="85.821922"
           rx="1.4754099"
           ry="1.4826704" />
      </g>
    </g>
    <g
       style="stroke:#ff0000;stroke-opacity:1"
       id="g951"
       transform="translate(76.219896,76.740102)">
      <ellipse
         style="fill:none;stroke:#ff0000;stroke-width:0.1;stroke-linecap:round;stroke-linejoin:round;stroke-miterlimit:4;stroke-dasharray:none;stroke-opacity:1"
         id="ellipse929"
         cx="169.73631"
         cy="61.634899"
         rx="40.959164"
         ry="40.963558" />
      <g
         style="stroke:#ff0000;stroke-opacity:1"
         transform="translate(110.93145,-0.4355278)"
         id="g939">
        <circle
           style="opacity:1;fill:none;stroke:#ff0000;stroke-width:0.1;stroke-linecap:round;stroke-linejoin:round;stroke-miterlimit:4;stroke-dasharray:none;stroke-opacity:1"
           id="circle931"
           cx="59.333996"
           cy="43.549591"
           r="2.5" />
        <circle
           r="2.5"
           cy="80.591263"
           cx="59.333996"
           id="circle933"
           style="opacity:1;fill:none;stroke:#ff0000;stroke-width:0.1;stroke-linecap:round;stroke-linejoin:round;stroke-miterlimit:4;stroke-dasharray:none;stroke-opacity:1" />
        <circle
           style="opacity:1;fill:none;stroke:#ff0000;stroke-width:0.1;stroke-linecap:round;stroke-linejoin:round;stroke-miterlimit:4;stroke-dasharray:none;stroke-opacity:1"
           id="circle935"
           cx="77.325699"
           cy="62.599598"
           r="2.5" />
        <circle
           r="2.5"
           cy="62.599598"
           cx="40.284027"
           id="circle937"
           style="opacity:1;fill:none;stroke:#ff0000;stroke-width:0.1;stroke-linecap:round;stroke-linejoin:round;stroke-miterlimit:4;stroke-dasharray:none;stroke-opacity:1" />
      </g>
      <g
         style="stroke:#ff0000;stroke-opacity:1"
         transform="translate(109.95831,-0.90369415)"
         id="g949">
        <ellipse
           style="opacity:1;fill:none;stroke:#ff0000;stroke-width:0.1;stroke-linecap:round;stroke-linejoin:round;stroke-miterlimit:4;stroke-dasharray:none;stroke-opacity:1"
           id="ellipse941"
           cx="82.002998"
           cy="39.255264"
           rx="1.4754099"
           ry="1.4826704" />
        <ellipse
           ry="1.4826704"
           rx="1.4754099"
           cy="39.255264"
           cx="37.023834"
           id="ellipse943"
           style="opacity:1;fill:none;stroke:#ff0000;stroke-width:0.1;stroke-linecap:round;stroke-linejoin:round;stroke-miterlimit:4;stroke-dasharray:none;stroke-opacity:1" />
        <ellipse
           style="opacity:1;fill:none;stroke:#ff0000;stroke-width:0.1;stroke-linecap:round;stroke-linejoin:round;stroke-miterlimit:4;stroke-dasharray:none;stroke-opacity:1"
           id="ellipse945"
           cx="37.023834"
           cy="85.821922"
           rx="1.4754099"
           ry="1.4826704" />
        <ellipse
           ry="1.4826704"
           rx="1.4754099"
           cy="85.821922"
           cx="82.532166"
           id="ellipse947"
           style="opacity:1;fill:none;stroke:#ff0000;stroke-width:0.1;stroke-linecap:round;stroke-linejoin:round;stroke-miterlimit:4;stroke-dasharray:none;stroke-opacity:1" />
      </g>
    </g>
  </g>
</svg>
